HIERARCHY
ROOT hip
{
  OFFSET 0 0 0
  CHANNELS 6 Xposition Yposition Zposition Zrotation Yrotation Xrotation
  JOINT abdomen
  {
    OFFSET 0 20.6881 -0.73152
    CHANNELS 3 Zrotation Xrotation Yrotation
    JOINT chest
    {
      OFFSET 0 11.7043 -0.48768
      CHANNELS 3 Zrotation Xrotation Yrotation
      JOINT neck
      {
        OFFSET 0 22.1894 -2.19456
        CHANNELS 3 Zrotation Xrotation Yrotation
        JOINT head
        {
          OFFSET -0.24384 7.07133 1.2192
          CHANNELS 3 Zrotation Xrotation Yrotation
          JOINT leftEye
          {
            OFFSET 4.14528 8.04674 8.04672
            CHANNELS 3 Zrotation Xrotation Yrotation
            End Site
            {
              OFFSET 1 0 0
            }
          }
          JOINT rightEye
          {
            OFFSET -3.6576 8.04674 8.04672
            CHANNELS 3 Zrotation Xrotation Yrotation
            End Site
            {
              OFFSET 1 0 0
            }
          }
        }
      }
      JOINT rCollar
      {
        OFFSET -2.68224 19.2634 -4.8768
        CHANNELS 3 Zrotation Xrotation Yrotation
        JOINT rShldr
        {
          OFFSET -8.77824 -1.95073 1.46304
          CHANNELS 3 Zrotation Xrotation Yrotation
          JOINT rForeArm
          {
            OFFSET -28.1742 -1.7115 0.48768
            CHANNELS 3 Zrotation Xrotation Yrotation
            JOINT rHand
            {
              OFFSET -22.5879 0.773209 7.07136
              CHANNELS 3 Zrotation Xrotation Yrotation
              JOINT rThumb1
              {
                OFFSET -1.2192 -0.487915 3.41376
                CHANNELS 3 Zrotation Xrotation Yrotation
                JOINT rThumb2
                {
                  OFFSET -3.37035 -0.52449 3.41376
                  CHANNELS 3 Zrotation Xrotation Yrotation
                  End Site
                  {
                    OFFSET -1.78271 -1.18214 1.43049
                  }
                }
              }
              JOINT rIndex1
              {
                OFFSET -7.75947 0.938293 5.60832
                CHANNELS 3 Zrotation Xrotation Yrotation
                JOINT rIndex2
                {
                  OFFSET -2.54057 -0.884171 1.56538
                  CHANNELS 3 Zrotation Xrotation Yrotation
                  End Site
                  {
                    OFFSET -1.62519 -0.234802 1.16502
                  }
                }
              }
              JOINT rMid1
              {
                OFFSET -8.24714 1.18213 3.41376
                CHANNELS 3 Zrotation Xrotation Yrotation
                JOINT rMid2
                {
                  OFFSET -3.10165 -0.590103 1.0647
                  CHANNELS 3 Zrotation Xrotation Yrotation
                  End Site
                  {
                    OFFSET -2.48547 -0.328903 0.83742
                  }
                }
              }
              JOINT rRing1
              {
                OFFSET -8.82822 0.546677 1.51678
                CHANNELS 3 Zrotation Xrotation Yrotation
                JOINT rRing2
                {
                  OFFSET -2.60934 -0.819778 -0.0198488
                  CHANNELS 3 Zrotation Xrotation Yrotation
                  End Site
                  {
                    OFFSET -2.33842 -0.294052 0.168128
                  }
                }
              }
              JOINT rPinky1
              {
                OFFSET -8.27202 -0.0477905 -0.4584
                CHANNELS 3 Zrotation Xrotation Yrotation
                JOINT rPinky2
                {
                  OFFSET -1.82734 -0.647385 -0.700984
                  CHANNELS 3 Zrotation Xrotation Yrotation
                  End Site
                  {
                    OFFSET -1.69225 -0.51767 -0.607171
                  }
                }
              }
            }
          }
        }
      }
      JOINT lCollar
      {
        OFFSET 2.68224 19.2634 -4.8768
        CHANNELS 3 Zrotation Xrotation Yrotation
        JOINT lShldr
        {
          OFFSET 8.77824 -1.95073 1.46304
          CHANNELS 3 Zrotation Xrotation Yrotation
          JOINT lForeArm
          {
            OFFSET 28.1742 -1.7115 0.48768
            CHANNELS 3 Zrotation Xrotation Yrotation
            JOINT lHand
            {
              OFFSET 22.5879 0.773209 7.07136
              CHANNELS 3 Zrotation Xrotation Yrotation
              JOINT lThumb1
              {
                OFFSET 1.2192 -0.487915 3.41376
                CHANNELS 3 Zrotation Xrotation Yrotation
                JOINT lThumb2
                {
                  OFFSET 3.37035 -0.52449 3.41376
                  CHANNELS 3 Zrotation Xrotation Yrotation
                  End Site
                  {
                    OFFSET 1.78271 -1.18214 1.43049
                  }
                }
              }
              JOINT lIndex1
              {
                OFFSET 7.75947 0.938293 5.60832
                CHANNELS 3 Zrotation Xrotation Yrotation
                JOINT lIndex2
                {
                  OFFSET 2.54057 -0.884171 1.56538
                  CHANNELS 3 Zrotation Xrotation Yrotation
                  End Site
                  {
                    OFFSET 1.62519 -0.234802 1.16502
                  }
                }
              }
              JOINT lMid1
              {
                OFFSET 8.24714 1.18213 3.41376
                CHANNELS 3 Zrotation Xrotation Yrotation
                JOINT lMid2
                {
                  OFFSET 3.10165 -0.590103 1.0647
                  CHANNELS 3 Zrotation Xrotation Yrotation
                  End Site
                  {
                    OFFSET 2.48547 -0.328903 0.83742
                  }
                }
              }
              JOINT lRing1
              {
                OFFSET 8.82822 0.546677 1.51678
                CHANNELS 3 Zrotation Xrotation Yrotation
                JOINT lRing2
                {
                  OFFSET 2.60934 -0.819778 -0.0198488
                  CHANNELS 3 Zrotation Xrotation Yrotation
                  End Site
                  {
                    OFFSET 2.33842 -0.294052 0.168128
                  }
                }
              }
              JOINT lPinky1
              {
                OFFSET 8.27202 -0.0477905 -0.4584
                CHANNELS 3 Zrotation Xrotation Yrotation
                JOINT lPinky2
                {
                  OFFSET 1.82734 -0.647385 -0.700984
                  CHANNELS 3 Zrotation Xrotation Yrotation
                  End Site
                  {
                    OFFSET 1.69225 -0.51767 -0.607171
                  }
                }
              }
            }
          }
        }
      }
    }
  }
  JOINT rButtock
  {
    OFFSET -8.77824 4.35084 1.2192
    CHANNELS 3 Zrotation Xrotation Yrotation
    JOINT rThigh
    {
      OFFSET 0 -1.70687 -2.19456
      CHANNELS 3 Zrotation Xrotation Yrotation
      JOINT rShin
      {
        OFFSET 0 -36.8199 0.73152
        CHANNELS 3 Zrotation Xrotation Yrotation
        JOINT rFoot
        {
          OFFSET 0.73152 -45.1104 -5.12064
          CHANNELS 3 Zrotation Xrotation Yrotation
          End Site
          {
            OFFSET -1.1221 -3.69964 12.103
          }
        }
      }
    }
  }
  JOINT lButtock
  {
    OFFSET 8.77824 4.35084 1.2192
    CHANNELS 3 Zrotation Xrotation Yrotation
    JOINT lThigh
    {
      OFFSET 0 -1.70687 -2.19456
      CHANNELS 3 Zrotation Xrotation Yrotation
      JOINT lShin
      {
        OFFSET 0 -36.8199 0.73152
        CHANNELS 3 Zrotation Xrotation Yrotation
        JOINT lFoot
        {
          OFFSET -0.73152 -45.1104 -5.12064
          CHANNELS 3 Zrotation Xrotation Yrotation
          End Site
          {
            OFFSET 1.1221 -3.69964 12.103
          }
        }
      }
    }
  }
}
MOTION
Frames:	4
Frame Time:	0.00833333
-167.287 85.2982 7.0349 0.0 0.0 0.0 0.984356 -0.00436093 0.0272514 0.271545 -0.00455346 0.0470446 1.67598e-14 0.0 1.36664e-16 5.03422e-14 3.18055e-15 3.69615e-16 -0.0 0.0 0.0 -0.0 0.0 0.0 8.49705e-15 8.54153e-18 2.48481e-16 1.78129e-13 3.97569e-16 2.78299e-15 3.0502e-12 -9.0129e-13 -3.18055e-14 3.48117e-11 9.51408e-13 2.92611e-13 8.21311e-11 1.03741e-13 5.78861e-13 1.41833e-10 1.81292e-13 1.00028e-12 8.21366e-11 1.04958e-13 5.78861e-13 7.73091 5.47488 0.417314 8.21305e-11 1.03964e-13 5.82042e-13 2.90554 0.965183 0.102902 8.21331e-11 1.03964e-13 5.86812e-13 10.2786 0.731801 0.0259123 8.21251e-11 1.06946e-13 5.97944e-13 2.22167 -0.733487 -0.20892 8.30081e-15 9.31803e-18 -1.49089e-16 1.75414e-13 3.16813e-16 1.19271e-15 3.034e-12 9.17391e-13 2.54444e-14 3.48175e-11 -8.83821e-13 2.57625e-13 8.21179e-11 7.09224e-14 5.85222e-13 1.41824e-10 1.17681e-13 1.02255e-12 8.2114e-11 7.196e-14 6.01125e-13 -7.73091 5.47488 -0.417314 8.21197e-11 7.05686e-14 5.88403e-13 -2.90554 0.965183 -0.102902 8.21112e-11 7.11649e-14 5.88403e-13 -10.2786 0.731801 -0.0259123 8.21231e-11 7.35503e-14 5.82042e-13 -2.22167 -0.733487 0.20892 -2.03217e-16 0.0 -3.88251e-19 1.24882 -5.45297 -0.109163 6.92463e-05 4.32234 0.0238803 -0.51067 1.12951 0.0812341 2.03217e-16 0.0 3.88251e-19 0.249666 -1.91924 0.0129233 0.00928369 -2.07855 0.0766846 0.496258 3.99654 -0.137946
-163.62 82.8867 -0.646669 -164.166 67.9834 -148.205 3.06691 -6.68098 2.80777 -0.466427 2.49217 0.82456 4.81099 4.48827 3.75079 -4.91804 -1.30205 7.78564 -0.0 0.0 0.0 -0.0 0.0 0.0 1.14092e-13 1.75332e-13 1.01426e-13 23.0284 5.17997 0.684802 -3.33621 -1.37443 5.35429 0.000172626 -0.300483 -0.0422283 -1.74654e-09 1.61822e-10 1.674e-09 -3.01598e-09 2.79613e-10 2.89465e-09 -1.74653e-09 1.61823e-10 1.674e-09 7.73091 5.47488 0.417314 -1.74654e-09 1.61822e-10 1.674e-09 2.90554 0.965183 0.102902 -1.74654e-09 1.61822e-10 1.67401e-09 10.2786 0.731801 0.0259123 -1.74655e-09 1.61824e-10 1.67402e-09 2.22167 -0.733487 -0.20892 1.13883e-13 1.75334e-13 1.01056e-13 -21.4285 6.14776 0.146203 4.07854 -1.82603 -6.39955 -0.00372038 -1.35664 0.190471 -1.02216e-09 -7.74709e-10 -1.80864e-09 -1.76299e-09 -1.34164e-09 -3.12942e-09 -1.02217e-09 -7.74706e-10 -1.80862e-09 -7.73091 5.47488 -0.417314 -1.02216e-09 -7.74707e-10 -1.80863e-09 -2.90554 0.965183 -0.102902 -1.02217e-09 -7.74707e-10 -1.80864e-09 -10.2786 0.731801 -0.0259123 -1.02216e-09 -7.74706e-10 -1.80864e-09 -2.22167 -0.733487 0.20892 -2.03217e-16 0.0 -3.88251e-19 1.21101 -7.37727 -3.12122 0.00552936 5.47526 0.0682388 -1.11199 -5.75503 -8.70435 2.03217e-16 0.0 3.88251e-19 4.09635 -10.1238 -0.695741 -0.0464394 6.68958 -0.140371 0.955402 -1.16161 4.03435
-163.683 82.9229 -0.600965 -163.96 68.0344 -147.69 5.98699 -13.6894 5.92509 -1.34327 5.10485 1.66825 9.29671 9.21908 7.76349 -9.72916 -2.61014 15.9852 -0.0 0.0 0.0 -0.0 0.0 0.0 2.25916e-13 3.54846e-13 2.18654e-13 47.2849 10.5919 1.3654 -6.58895 -2.78971 11.0306 -0.000131007 -0.609702 -0.0856884 -3.75614e-09 3.45896e-10 3.50427e-09 -6.48641e-09 5.97712e-10 6.05964e-09 -3.75613e-09 3.45895e-10 3.50427e-09 7.73091 5.47488 0.417314 -3.75614e-09 3.45894e-10 3.50427e-09 2.90554 0.965183 0.102902 -3.75613e-09 3.45894e-10 3.50427e-09 10.2786 0.731801 0.0259123 -3.75614e-09 3.45897e-10 3.50428e-09 2.22167 -0.733487 -0.20892 2.25694e-13 3.54848e-13 2.18312e-13 -44.0819 12.7189 0.340005 7.95102 -3.68153 -13.1878 0.00216094 -2.77936 0.390585 -2.23053e-09 -1.49834e-09 -3.71575e-09 -3.84771e-09 -2.59488e-09 -6.42924e-09 -2.23053e-09 -1.49833e-09 -3.71574e-09 -7.73091 5.47488 -0.417314 -2.23052e-09 -1.49833e-09 -3.71575e-09 -2.90554 0.965183 -0.102902 -2.23053e-09 -1.49833e-09 -3.71575e-09 -10.2786 0.731801 -0.0259123 -2.23052e-09 -1.49833e-09 -3.71576e-09 -2.22167 -0.733487 0.20892 -2.03217e-16 0.0 -3.88251e-19 0.951512 -9.36113 -6.33945 0.00933328 6.69386 0.115257 -4.05442 -12.5251 -18.3505 2.03217e-16 0.0 3.88251e-19 7.93343 -18.7804 -1.5054 -0.0309299 15.9588 -0.382699 2.25995 -6.54428 8.50662
-163.732 82.9352 -0.56917 -163.836 68.0602 -147.331 9.27255 -19.8385 8.84003 -2.1471 7.47991 2.39766 12.6421 13.231 11.5279 -13.7234 -3.61913 23.4003 -0.0 0.0 0.0 -0.0 0.0 0.0 3.25283e-13 5.2598e-13 3.03782e-13 68.7018 15.5309 2.12359 -9.24764 -3.97951 16.0981 -0.000811036 -0.901446 -0.126699 -5.40388e-09 4.8526e-10 5.02084e-09 -9.33161e-09 8.38475e-10 8.68196e-09 -5.40388e-09 4.85258e-10 5.02084e-09 7.73091 5.47488 0.417314 -5.40388e-09 4.85257e-10 5.02084e-09 2.90554 0.965183 0.102902 -5.40387e-09 4.85257e-10 5.02084e-09 10.2786 0.731801 0.0259123 -5.40389e-09 4.85259e-10 5.02085e-09 2.22167 -0.733487 -0.20892 3.25048e-13 5.25982e-13 3.03466e-13 -64.3839 18.4428 0.459697 11.0331 -5.20528 -19.2714 0.0159563 -4.06973 0.572698 -3.23073e-09 -2.32427e-09 -5.42708e-09 -5.57261e-09 -4.02516e-09 -9.3903e-09 -3.23073e-09 -2.32426e-09 -5.42707e-09 -7.73091 5.47488 -0.417314 -3.23072e-09 -2.32426e-09 -5.42708e-09 -2.90554 0.965183 -0.102902 -3.23073e-09 -2.32426e-09 -5.42708e-09 -10.2786 0.731801 -0.0259123 -3.23072e-09 -2.32427e-09 -5.42709e-09 -2.22167 -0.733487 0.20892 -2.03217e-16 0.0 -3.88251e-19 0.520979 -11.1158 -9.24361 0.0110447 7.7811 0.157609 -8.656 -17.6356 -27.5382 2.03217e-16 0.0 3.88251e-19 11.1189 -26.5161 -2.32527 0.0557747 24.2246 -0.626701 4.14093 -11.2162 12.6207
